HIERARCHY
ROOT Hips
{
	OFFSET 0.000000 0.000000 0.000000
	CHANNELS 6 Xposition Yposition Zposition Zrotation Yrotation Xrotation 
	JOINT LeftUpLeg_virtual
	{
		OFFSET 0.000000 0.000000 0.000000
		CHANNELS 3 Zrotation Yrotation Xrotation
		JOINT LeftUpLeg
		{
			OFFSET 8.479694 -4.795517 -0.379053
			CHANNELS 3 Zrotation Yrotation Xrotation
			JOINT LeftLeg
			{
				OFFSET 0.485052 -32.551468 0.112863
				CHANNELS 3 Zrotation Yrotation Xrotation
				JOINT LeftFoot
				{
					OFFSET 0.438033 -32.635670 -3.012641
					CHANNELS 3 Zrotation Yrotation Xrotation
					JOINT LeftToeBase
					{
						OFFSET 0.970169 -13.225353 11.864223
						CHANNELS 3 Zrotation Yrotation Xrotation
						End Site
						{
							OFFSET 0.000000 0.000000 0.000000
						}
					}
				}
			}
		}
	}
	JOINT RightUpLeg_virtual
	{
		OFFSET 0.000000 0.000000 0.000000
		CHANNELS 3 Zrotation Yrotation Xrotation
		JOINT RightUpLeg
		{
			OFFSET -8.479694 -4.795517 -0.379053
			CHANNELS 3 Zrotation Yrotation Xrotation
			JOINT RightLeg
			{
				OFFSET -0.484100 -32.551483 0.112903
				CHANNELS 3 Zrotation Yrotation Xrotation
				JOINT RightFoot
				{
					OFFSET -0.438985 -32.635651 -3.012681
					CHANNELS 3 Zrotation Yrotation Xrotation
					JOINT RightToeBase
					{
						OFFSET -0.970169 -13.225354 11.864223
						CHANNELS 3 Zrotation Yrotation Xrotation
						End Site
						{
							OFFSET 0.000000 0.000000 0.000000
						}
					}
				}
			}
		}
	}
	JOINT Spine_virtual
	{
		OFFSET 0.000000 0.000000 0.000000
		CHANNELS 3 Zrotation Yrotation Xrotation
		JOINT Spine
		{
			OFFSET 0.000000 7.722015 1.166203
			CHANNELS 3 Zrotation Yrotation Xrotation
			JOINT Spine1
			{
				OFFSET 0.000000 12.024086 0.248766
				CHANNELS 3 Zrotation Yrotation Xrotation
				JOINT Spine2
				{
					OFFSET -0.000000 11.503036 -0.491240
					CHANNELS 3 Zrotation Yrotation Xrotation
					JOINT Neck_virtual
					{
						OFFSET 0.000000 0.000000 0.000000
						CHANNELS 3 Zrotation Yrotation Xrotation
						JOINT Neck
						{
							OFFSET 0.000000 18.430687 -3.123054
							CHANNELS 3 Zrotation Yrotation Xrotation
							JOINT Head
							{
								OFFSET -0.000000 9.051071 1.034021
								CHANNELS 3 Zrotation Yrotation Xrotation
								End Site
								{
									OFFSET 0.000000 0.000000 0.000000
								}
							}
						}
					}
					JOINT LeftShoulder_virtual
					{
						OFFSET 0.000000 0.000000 0.000000
						CHANNELS 3 Zrotation Yrotation Xrotation
						JOINT LeftShoulder
						{
							OFFSET 6.197824 13.665230 -4.064723
							CHANNELS 3 Zrotation Yrotation Xrotation
							JOINT LeftArm
							{
								OFFSET 7.778132 -0.187073 -1.709282
								CHANNELS 3 Zrotation Yrotation Xrotation
								JOINT LeftForeArm
								{
									OFFSET 21.954697 0.000000 -2.041093
									CHANNELS 3 Zrotation Yrotation Xrotation
									JOINT LeftHand
									{
										OFFSET 22.992908 0.000000 -0.870901
										CHANNELS 3 Zrotation Yrotation Xrotation
										End Site
										{
											OFFSET 0.000000 0.000000 0.000000
										}
									}
								}
							}
						}
					}
					JOINT RightShoulder_virtual
					{
						OFFSET 0.000000 0.000000 0.000000
						CHANNELS 3 Zrotation Yrotation Xrotation
						JOINT RightShoulder
						{
							OFFSET -6.197824 13.665230 -4.064723
							CHANNELS 3 Zrotation Yrotation Xrotation
							JOINT RightArm
							{
								OFFSET -7.778132 -0.187073 -1.709282
								CHANNELS 3 Zrotation Yrotation Xrotation
								JOINT RightForeArm
								{
									OFFSET -21.954697 0.000000 -2.041093
									CHANNELS 3 Zrotation Yrotation Xrotation
									JOINT RightHand
									{
										OFFSET -22.992908 0.000000 -0.870901
										CHANNELS 3 Zrotation Yrotation Xrotation
										End Site
										{
											OFFSET 0.000000 0.000000 0.000000
										}
									}
								}
							}
						}
					}
				}
			}
		}
	}
}
MOTION
Frames: 4
Frame Time: 0.033333
39.645065 80.556534 -7.479260 -179.908330 -22.935953 179.881774 -2.183839 1.030104 14.232204 6.621675 -8.708284 -22.039169 4.815096 5.750700 24.291532 0.551839 -3.592887 -9.329956 0.000000 0.000000 0.000000 2.253287 0.288219 15.371862 -3.305063 12.101425 -20.274008 -0.885056 8.013575 27.820288 10.113458 7.289871 -14.657222 0.000000 0.000000 0.000000 2.532376 3.667330 -1.233362 2.220745 -3.107425 -10.408708 0.254469 -2.007052 10.779002 -0.024068 -0.007385 0.004914 0.149914 -0.321016 11.532638 0.173024 2.960736 -0.717510 0.000000 0.000000 0.000000 1.798398 0.097174 8.455325 -5.320623 -7.311582 1.755495 -44.010361 -31.141701 -9.667573 -16.498585 -84.451539 32.130822 0.000000 0.000000 0.000000 -3.245971 2.132849 7.265564 20.307747 10.689851 3.003262 54.552601 16.917332 4.641417 -169.431612 73.457756 -174.635943 0.000000 0.000000 0.000000 
39.651356 80.560326 -7.418701 -179.916731 -23.387891 179.878195 -2.135433 0.768723 14.419880 6.549689 -8.619910 -22.185291 4.722608 5.520511 24.025993 0.730498 -3.459373 -9.258909 0.000000 0.000000 0.000000 2.275002 -0.053628 15.536621 -3.383180 12.007455 -20.443439 -0.840079 7.938107 27.772516 10.185846 7.351033 -14.628365 0.000000 0.000000 0.000000 2.564634 3.417935 -0.926476 2.227819 -2.888906 -10.314384 0.323991 -1.861059 10.696301 -0.023766 0.004966 0.005795 0.269871 -0.082909 11.461885 1.184167 2.523578 -1.046311 0.000000 0.000000 0.000000 1.872611 0.217733 8.425706 -6.180429 -6.853168 2.135458 -47.196522 -27.230024 -8.913621 -61.495649 -88.075016 79.099813 0.000000 0.000000 0.000000 -3.208680 2.282943 7.156881 20.209174 9.656599 2.947307 55.152654 17.996592 1.097830 -168.009294 73.210243 -173.439636 0.000000 0.000000 0.000000 
39.629898 80.563950 -7.337153 -179.886911 -23.884570 179.889479 -2.065199 0.529628 14.543529 6.519401 -8.659172 -22.329524 4.734796 5.518234 23.867314 0.718879 -3.594143 -9.197201 0.000000 0.000000 0.000000 2.266674 -0.420595 15.635363 -3.472899 11.867814 -20.603655 -0.809835 7.937911 27.699552 10.242522 7.387000 -14.598821 0.000000 0.000000 0.000000 2.641313 3.124204 -0.691495 2.227380 -2.661275 -10.191597 0.372022 -1.745751 10.631533 -0.020843 -0.000606 -0.022536 0.327203 -0.014777 11.438905 2.034290 2.150933 -1.401144 0.000000 0.000000 0.000000 1.902709 0.332453 8.436446 -6.827715 -6.295820 2.470829 -50.161534 -23.389732 -8.602377 -139.400445 -87.181238 158.864681 0.000000 0.000000 0.000000 -3.192408 2.374573 7.185237 20.039799 8.550269 2.905938 55.704824 18.354580 -2.573878 -166.426083 73.209868 -172.125548 0.000000 0.000000 0.000000 
39.589058 80.562057 -7.247315 -179.812994 -24.385165 179.853935 -1.965240 0.301662 14.632195 6.493721 -8.769332 -22.470644 4.729328 5.525613 23.791799 0.749624 -3.704461 -9.152267 0.000000 0.000000 0.000000 2.329098 -0.782655 15.708762 -3.549974 11.727638 -20.721039 -0.772391 7.941118 27.662531 10.297212 7.418697 -14.611486 0.000000 0.000000 0.000000 2.759580 2.841107 -0.457144 2.212573 -2.426569 -10.025882 0.387468 -1.633417 10.600013 0.005081 0.006830 0.006907 0.281702 0.032694 11.377147 2.723025 1.783471 -1.731621 0.000000 0.000000 0.000000 1.855443 0.454767 8.395387 -7.198055 -5.794008 2.688731 -52.655752 -20.033657 -8.419955 -156.811895 -85.555380 178.002421 0.000000 0.000000 0.000000 -3.277159 2.506277 7.124620 19.918208 7.546806 2.917460 56.125819 18.222455 -6.074639 -163.890007 73.272856 -169.912184 0.000000 0.000000 0.000000 
